# This file uses centimeters as units for non-parametric coordinates.

mtllib fish.mtl
g default
v -0.128829 -0.500000 0.500000
v 0.128829 -0.500000 0.500000
v -0.128829 0.500000 0.500000
v 0.128829 0.500000 0.500000
v -0.128829 0.500000 -0.500000
v 0.128829 0.500000 -0.500000
v -0.128829 -0.500000 -0.500000
v 0.128829 -0.500000 -0.500000
v -0.082362 -0.266129 0.808782
v 0.082362 -0.266129 0.808782
v 0.082362 -0.022718 0.808782
v -0.082362 -0.022718 0.808782
v -0.039248 0.173758 -0.829158
v 0.039248 0.173758 -0.829158
v 0.039248 -0.173758 -0.829158
v -0.039248 -0.173758 -0.829158
v -0.023050 0.642486 -1.003745
v 0.023050 0.642486 -1.003745
v 0.023050 -0.642486 -1.003745
v -0.023050 -0.642486 -1.003745
vt 0.455865 0.387726
vt 0.455865 0.356333
vt 0.502254 0.356333
vt 0.502254 0.387726
vt 0.601874 0.447236
vt 0.617957 0.347477
vt 0.601874 0.106241
vt 0.808538 0.396581
vt 0.629030 0.736246
vt 0.629029 0.007812
vt 0.007813 0.367637
vt 0.384139 0.736246
vt 0.411294 0.637817
vt 0.191462 0.347477
vt 0.411293 0.296822
vt 0.382043 0.396581
vt 0.539699 0.041229
vt 0.896862 0.379509
vt 0.103139 0.364549
vt 0.473469 0.702830
vt 0.007812 0.376422
vt 0.384138 0.007813
vt 0.384139 0.745031
vt 0.103139 0.379509
vt 0.992188 0.367636
vt 0.629030 0.745032
vt 0.473469 0.041228
vt 0.992188 0.376422
vt 0.896861 0.364549
vt 0.539699 0.702830
vt 0.191462 0.396582
vt 0.411293 0.106241
vt 0.808538 0.347476
vt 0.601874 0.637817
vt 0.617957 0.396581
vt 0.601874 0.296822
vt 0.382043 0.347477
vt 0.411293 0.447236
vn 0.000000 0.000000 1.000000
vn 0.000000 0.000000 1.000000
vn 0.000000 0.000000 1.000000
vn 0.000000 0.000000 1.000000
vn 0.000000 1.000000 0.000000
vn 0.000000 1.000000 0.000000
vn 0.000000 1.000000 0.000000
vn 0.000000 1.000000 0.000000
vn 0.000000 0.000000 -1.000000
vn 0.000000 0.000000 -1.000000
vn 0.000000 0.000000 -1.000000
vn 0.000000 0.000000 -1.000000
vn 0.000000 -1.000000 0.000000
vn 0.000000 -1.000000 0.000000
vn 0.000000 -1.000000 0.000000
vn 0.000000 -1.000000 0.000000
vn 1.000000 0.000000 0.000000
vn 1.000000 0.000000 0.000000
vn 1.000000 0.000000 0.000000
vn 1.000000 0.000000 0.000000
vn -1.000000 0.000000 0.000000
vn -1.000000 0.000000 0.000000
vn -1.000000 0.000000 0.000000
vn -1.000000 0.000000 0.000000
vn 0.000000 -0.797160 0.603768
vn 0.000000 -0.797160 0.603768
vn 0.000000 -0.797160 0.603768
vn 0.000000 -0.797160 0.603768
vn 0.988866 0.000000 0.148812
vn 0.988866 0.000000 0.148812
vn 0.988866 0.000000 0.148812
vn 0.988866 0.000000 0.148812
vn 0.000000 0.508611 0.860996
vn 0.000000 0.508611 0.860996
vn 0.000000 0.508611 0.860996
vn 0.000000 0.508611 0.860996
vn -0.988866 0.000000 0.148812
vn -0.988866 0.000000 0.148812
vn -0.988866 0.000000 0.148812
vn -0.988866 0.000000 0.148812
vn 0.000000 0.710245 -0.703955
vn 0.000000 0.710245 -0.703955
vn 0.000000 0.710245 -0.703955
vn 0.000000 0.710245 -0.703955
vn 0.964905 0.000000 -0.262601
vn 0.964905 0.000000 -0.262601
vn 0.964905 0.000000 -0.262601
vn 0.964905 0.000000 -0.262601
vn 0.000000 -0.710245 -0.703955
vn 0.000000 -0.710245 -0.703955
vn 0.000000 -0.710245 -0.703955
vn 0.000000 -0.710245 -0.703955
vn -0.964905 0.000000 -0.262601
vn -0.964905 0.000000 -0.262601
vn -0.964905 0.000000 -0.262601
vn -0.964905 0.000000 -0.262601
vn 0.000000 0.349045 0.937106
vn 0.000000 0.349045 0.937106
vn 0.000000 0.349045 0.937106
vn 0.000000 0.349045 0.937106
vn 0.995723 0.000000 -0.092385
vn 0.995723 0.000000 -0.092385
vn 0.995723 0.000000 -0.092385
vn 0.995723 0.000000 -0.092385
vn 0.000000 -0.349045 0.937106
vn 0.000000 -0.349045 0.937106
vn 0.000000 -0.349045 0.937106
vn 0.000000 -0.349045 0.937106
vn -0.995723 0.000000 -0.092385
vn -0.995723 0.000000 -0.092385
vn -0.995723 0.000000 -0.092385
vn -0.995723 0.000000 -0.092385
s off
g fish
usemtl standardSurface2SG
f 9/1/1 10/2/2 11/3/3 12/4/4
f 3/35/5 4/6/6 6/33/7 5/8/8
f 17/9/9 18/26/10 19/23/11 20/12/12
f 7/31/13 8/14/14 2/37/15 1/16/16
f 2/15/17 8/32/18 6/7/19 4/36/20
f 7/13/21 1/38/22 3/5/23 5/34/24
f 1/16/25 2/37/26 10/2/27 9/1/28
f 2/15/29 4/36/30 11/3/31 10/2/32
f 4/6/33 3/35/34 12/4/35 11/3/36
f 3/5/37 1/38/38 9/1/39 12/4/40
f 5/8/41 6/33/42 14/29/43 13/18/44
f 6/7/45 8/32/46 15/27/47 14/17/48
f 8/14/49 7/31/50 16/24/51 15/19/52
f 7/13/53 5/34/54 13/30/55 16/20/56
f 13/18/57 14/29/58 18/25/59 17/28/60
f 14/17/61 15/27/62 19/22/63 18/10/64
f 15/19/65 16/24/66 20/21/67 19/11/68
f 16/20/69 13/30/70 17/9/71 20/12/72
